<svg id="catSVG" xmlns="http://www.w3.org/2000/svg" viewBox="0 0 100 100"><style>.a{fill:none;stroke:#ED1E79;}.b{fill:none;stroke-width:1;stroke:#ED1E79;}.c{fill:none;stroke:#3FA9F5;}</style><polygon points="14.8 60 86.2 60 97.5 83.8 3.5 83.8 " class="a"/><rect x="3.5" y="83.8" width="94" height="3.5" class="a"/><rect x="14.8" y="13.9" width="71.7" height="46.1" class="a"/><rect x="16.8" y="15.6" width="67.3" height="42.1" class="b"/><polygon points="16.8 62.6 84.2 62.6 89.7 74.5 10.5 74.5 " class="b"/><polygon points="35.4 76 61.5 76 63.6 81.8 33.4 81.8 " class="b"/><path d="M63.5 37c0 6.5-6 11.8-13.4 11.8s-13.4-5.3-13.4-11.7c0-2.2 0.7-4.3 1.9-6 0.6-0.8-0.9-6.2-0.1-6.9 1.1-0.9 4.5 2.9 5.9 2.3 1.8-0.7 3.7-1.1 5.8-1.1 2.1 0 4.1 0.4 5.9 1.2 1 0.4 5.5-3.1 6.3-2.5 1.3 0.9-1.3 6-0.5 7.3C62.9 32.8 63.5 34.8 63.5 37z" style="fill:none;stroke-width:2;stroke:#3FA9F5"/><path d="M44.6 40.3c0 0 1.8 5 5.4 0 0 0 3.5 4.5 5.5 0" class="c"/><path d="M41.1 34.6c0 0 4.2-1.1 6.3 1.9" class="c"/><path d="M59.1 34.4c0 0-4.2-1.1-6.3 1.9" class="c"/></svg>