<svg xmlns="http://www.w3.org/2000/svg" viewBox="0 0 100 100"><circle cx="50" cy="50" r="45.8" style="fill:none;stroke-dasharray:20;stroke-width:2;stroke:#8233FF"/><circle cx="48.8" cy="50" r="38" style="fill:none;stroke-width:6;stroke:#33C5FF"/><path d="M72.5 79.6c-16.4 12.5-39.7 9.3-52.2-7.1 -10-13.1-7.4-31.8 5.7-41.7 10.5-8 25.4-5.9 33.4 4.5 6.4 8.4 4.8 20.3-3.6 26.7 -6.7 5.1-16.3 3.8-21.4-2.9 -4.1-5.4-3-13 2.3-17.1 4.3-3.3 10.4-2.4 13.7 1.9 2.6 3.4 1.9 8.3-1.5 10.9 -2.7 2.1-6.7 1.6-8.8-1.2 -1.7-2.2-1.2-5.3 1-7" style="fill:none;stroke-width:2;stroke:#33C5FF"/></svg>