<svg xmlns="http://www.w3.org/2000/svg" viewBox="0 0 100 100"><style>.a{fill:none;stroke:#31B1FF;}</style><path d="M59.9 79.1c0 0 0 0 0 0l-2.4-10.2c5-2.1 15.7-8 15.5-21 0 0 5.3-5.3 0.4-8.8 6-19.4-10.6-33.2-10.6-33.2l-3.5 4.2c-1.3-6.6 0-7.8 0-7.8C40.5 4.5 34.5 15.4 34.5 15.4l-3.9-2.9c-4.6 8.1-3.9 26.5-3.9 26.5 -4.9 3.5 0.4 8.8 0.4 8.8 -0.3 13.8 11.8 19.6 16.3 21.3l-1.7 9.5c0 0 0 0 0 0C21.3 82.6 16.8 97.7 16.8 97.7h29 8.5H83.2C83.2 97.7 78.9 83.3 59.9 79.1z" style="fill:none;stroke-width:2;stroke:#CDFF31"/><circle cx="39" cy="43.1" r="4" class="a"/><circle cx="60" cy="43.1" r="4" class="a"/><path d="M45.9 49.3c0 0 3.3 7.3 6.8 0" style="fill:none;stroke-width:0.5;stroke:#31B1FF"/></svg>